<?xml version="1.0" encoding="UTF-8"?><svg xmlns="http://www.w3.org/2000/svg" viewBox="0 0 157.59 104.62"><defs><style>.d{fill:#d0d2d3;}.e{fill:#5bc43a;}.f{fill:#59b238;}.g{fill:#f9fafb;}</style></defs><g id="a"/><g id="b"><g id="c"><path class="e" d="M31.96,104.62h-10.83c-1.72,0-3.39-.52-4.82-1.48-2.67-1.8-6.69-5.18-7.74-9.76,0-5.3,7.61-2.53,7.61-2.53l4.55,1.81,11.23,11.96Z"/><path class="e" d="M64.64,103.94h-10.83c-1.72,0-3.39-.52-4.82-1.48-2.67-1.8-6.69-5.18-7.74-9.76,0-5.3,7.61-2.53,7.61-2.53l4.55,1.81,11.23,11.96Z"/><path class="e" d="M103.58,103.94h-10.83c-1.72,0-3.39-.52-4.82-1.48-2.67-1.8-6.69-5.18-7.74-9.76,0-5.3,7.61-2.53,7.61-2.53l4.55,1.81,11.23,11.96Z"/><path class="e" d="M137.31,103.94h-10.83c-1.72,0-3.39-.52-4.82-1.48-2.67-1.8-6.69-5.18-7.74-9.76,0-5.3,7.61-2.53,7.61-2.53l4.55,1.81,11.23,11.96Z"/><circle class="f" cx="30.43" cy="92.97" r="11.66"/><circle class="f" cx="102.26" cy="92.28" r="11.66"/><path class="g" d="M157.58,87.09s-.43,6.3-4.68,6.3H4.13s-3.74-.85-3.57-5.45c12.94-9.19,40.17-12.6,40.17-12.6l26.72-5.45s60.77-.68,61.96-.68,28.17,17.87,28.17,17.87Z"/><path class="g" d="M89.92,0H46.77S26.6,5.73,26.6,25.14c37.02,.51,53.87,0,53.87,0L89.92,0Z"/><path class="d" d="M63.62,25.65v50.55s11.49-1.27,15.32,11.24h41.47c.28-1.47,.78-2.87,1.47-4.14,2.44-4.53,7.23-7.61,12.74-7.61s10.3,3.08,12.74,7.61c.69,1.27,1.19,2.67,1.47,4.14h8.75V10.84S156.82,.37,146.85,.12c-9.96-.26-62.81,0-62.81,0,0,0-20.42,2.3-20.42,25.53Z"/><circle class="f" cx="134.69" cy="92.28" r="11.66"/><circle class="f" cx="63.62" cy="92.28" r="11.66"/><path class="f" d="M63.62,25.65h-23.23s-15.66,2.38-15.83,21.45h18.21l-.68,24.17H24.56v16.17h22.3s5.28-11.4,16.77-11.23V25.65Z"/><path class="e" d="M41.54,25.65H16.73S1.65,26.39,0,44.06c0,23.67,.1,43.37,.1,43.37H24.56l.4-45.12s3.1-15.15,16.57-16.67Z"/><rect class="d" x="24.94" y="47.09" width="18.21" height="24.17"/><rect class="g" x="0" y="47.09" width="24.94" height="24.17"/></g></g></svg>