<?xml version="1.0" encoding="utf-8"?>
<svg width="26.656616px" height="26.656616px" viewBox="0 0 26.656616 26.656616" version="1.1" xmlns:xlink="http://www.w3.org/1999/xlink" xmlns="http://www.w3.org/2000/svg">
  <g id="Group-9-Copy">
    <g id="notifications_none">
      <g id="Outlined--Social--notifications_none">
        <path d="M0 0L26.6566 0L26.6566 26.6566L0 26.6566L0 0Z" id="Path" fill="none" fill-rule="evenodd" stroke="none" />
        <path d="M13.8837 23.3245C15.0291 23.3245 15.9662 22.4018 15.9662 21.274L11.8011 21.274C11.8011 22.4018 12.7383 23.3245 13.8837 23.3245ZM20.1313 17.173L20.1313 12.0467C20.1313 8.89921 18.434 6.26431 15.4456 5.56713L15.4456 4.86996C15.4456 4.019 14.7479 3.33208 13.8837 3.33208C13.0194 3.33208 12.3217 4.019 12.3217 4.86996L12.3217 5.56713C9.3437 6.26431 7.63601 8.88896 7.63601 12.0467L7.63601 17.173L5.55347 19.2235L5.55347 20.2488L22.2139 20.2488L22.2139 19.2235L20.1313 17.173ZM18.0488 18.1983L9.71857 18.1983L9.71857 12.0467C9.71857 9.5041 11.2909 7.43309 13.8837 7.43309C16.4764 7.43309 18.0488 9.5041 18.0488 12.0467L18.0488 18.1983Z" id="🔹-Icon-Color" fill="#1D1D1D" fill-rule="evenodd" stroke="none" />
      </g>
    </g>
  </g>
</svg>