<?xml version="1.0" encoding="UTF-8"?><svg xmlns="http://www.w3.org/2000/svg" xmlns:xlink="http://www.w3.org/1999/xlink" viewBox="0 0 288.83 151.4"><defs><style>.e{fill:#fff;}.f{fill:#0c8ae8;}.g{fill:#f7f7f9;}.h{fill:#f9f9f9;}.i{fill:url(#d);}.j{fill:#e0e1e2;}.k{fill:#0887fc;}</style><linearGradient id="d" x1="175.18" y1="25.63" x2="288.78" y2="25.63" gradientTransform="matrix(1, 0, 0, 1, 0, 0)" gradientUnits="userSpaceOnUse"><stop offset="0" stop-color="#e0e1e2"/><stop offset=".55" stop-color="#f7f7f9"/></linearGradient></defs><g id="a"/><g id="b"><g id="c"><rect class="k" y="0" width="288.71" height="151.4"/><g><polygon class="g" points="238.71 151.4 238.71 51.26 175.18 18.04 175.18 118.65 238.71 151.4"/><polygon class="j" points="238.39 151.4 288.78 133.84 288.78 34.65 238.39 51.26 238.39 151.4"/><polygon class="i" points="288.78 34.64 238.39 51.25 175.18 18.03 224.5 0 288.72 0 288.78 34.64"/></g><path class="f" d="M238.39,101.33v15.38l-63.2-33.83v-16.07c0,.61,63.2,34.52,63.2,34.52Z"/><path class="f" d="M175.18,59.5c0,.62,63.21,34.52,63.21,34.52v8.22l-63.21-33.84v-8.9Z"/><polygon class="f" points="288.72 88.18 288.61 95.38 288.72 95.35 288.7 96.76 238.39 116.71 238.39 101.33 238.42 101.31 238.42 94.02 288.83 75.7 288.64 88.2 288.72 88.18"/><g><path class="e" d="M187.23,75.33l-.41,1.91,2.98,1.46,.43-1.9,.82,.41-1.02,4.53-.81-.4,.42-1.93-2.98-1.46-.39,1.94-.82-.4,.93-4.56,.84,.4Z"/><path class="e" d="M194.23,82.93c-.25,.2-.52,.31-.83,.34-.31,.02-.63-.05-.95-.21-.33-.17-.61-.39-.84-.67-.23-.28-.38-.59-.47-.94-.09-.35-.09-.69,0-1.05,.08-.35,.22-.63,.43-.83,.21-.2,.47-.3,.77-.32,.3-.02,.62,.06,.95,.23,.34,.17,.62,.41,.85,.71,.23,.3,.4,.65,.51,1.03l.29-.8,.81,.42-.6,1.6-.23,1.79-.8-.41,.11-.89Zm-2.29-1.45c.05,.22,.15,.43,.3,.61,.14,.18,.32,.33,.54,.44,.21,.11,.42,.16,.63,.16,.21,0,.41-.05,.59-.15,.19-.1,.35-.24,.49-.43-.03-.27-.1-.53-.2-.78-.1-.25-.24-.47-.4-.66-.16-.19-.35-.35-.57-.45-.21-.11-.42-.16-.61-.14-.19,.01-.36,.08-.49,.21-.14,.13-.23,.3-.28,.53-.05,.23-.05,.45,0,.67Z"/><path class="e" d="M198.86,82.47l-.23,.88c.25-.21,.53-.33,.85-.36,.32-.02,.64,.05,.97,.23,.32,.17,.59,.4,.8,.69,.21,.28,.35,.6,.42,.94,.07,.34,.05,.69-.04,1.03-.09,.35-.25,.61-.46,.81-.21,.19-.46,.29-.75,.31-.29,.01-.59-.07-.91-.24-.33-.18-.6-.42-.83-.73-.22-.31-.38-.67-.48-1.07l-.47,1.87-.76-.4,1.1-4.36,.78,.41Zm-.28,2.46c.1,.25,.22,.47,.38,.66,.16,.19,.34,.34,.54,.45,.2,.11,.4,.16,.59,.15,.19,0,.35-.08,.48-.2,.14-.13,.23-.3,.29-.52,.06-.22,.07-.44,.02-.67-.05-.22-.14-.43-.27-.61-.14-.19-.31-.33-.51-.44-.21-.11-.41-.17-.62-.17-.21,0-.4,.05-.59,.15-.19,.1-.35,.24-.49,.42,.03,.27,.09,.53,.18,.78Z"/><path class="e" d="M204.98,88.7c-.25,.19-.52,.3-.82,.32-.3,.02-.6-.06-.92-.23-.31-.17-.57-.4-.78-.68-.21-.28-.34-.6-.41-.94-.07-.34-.05-.69,.04-1.03,.09-.35,.25-.61,.46-.81,.21-.19,.47-.29,.76-.3,.29-.01,.6,.07,.91,.25,.32,.18,.58,.41,.79,.72,.21,.3,.36,.65,.44,1.03l.32-.78,.77,.43-.66,1.57-.31,1.76-.76-.42,.15-.87Zm-2.15-1.48c.04,.22,.13,.43,.26,.61,.13,.18,.3,.33,.5,.44,.2,.11,.4,.17,.6,.17,.2,0,.4-.04,.58-.14,.18-.1,.35-.23,.5-.41-.02-.27-.07-.53-.16-.78-.09-.25-.21-.47-.36-.66-.15-.2-.32-.35-.53-.46-.2-.11-.4-.16-.58-.15-.19,0-.35,.07-.49,.2-.14,.12-.24,.3-.3,.52-.06,.22-.07,.44-.03,.67Z"/><path class="e" d="M207.26,87.07l.73,.41-.77,2.6,2.74-1.47,.94,.55-1.02,3.3-.71-.41,.8-2.61-2.75,1.49-.92-.52,.98-3.33Zm1.17-.04c-.15-.29-.2-.62-.15-.98l.6,.34c-.02,.2,0,.37,.08,.53,.08,.16,.2,.28,.36,.38,.16,.09,.31,.12,.45,.09,.14-.04,.25-.14,.33-.3l.59,.34c-.15,.3-.35,.49-.61,.54-.26,.06-.56,0-.9-.2-.34-.19-.58-.44-.74-.73Z"/><path class="e" d="M211.39,93.19c-.24-.31-.4-.65-.48-1-.08-.36-.06-.7,.04-1.04,.11-.34,.28-.59,.52-.76,.24-.17,.53-.24,.87-.22,.33,.03,.69,.15,1.06,.37,.37,.22,.68,.49,.92,.81,.24,.32,.39,.65,.46,1.01,.07,.36,.05,.7-.06,1.04-.11,.34-.29,.59-.53,.76-.24,.17-.52,.24-.85,.21-.33-.02-.67-.15-1.04-.37-.37-.22-.67-.49-.91-.8Zm.25-.93c.04,.23,.14,.44,.28,.63,.15,.2,.34,.36,.57,.5,.24,.14,.45,.22,.66,.23,.2,.01,.38-.04,.53-.15,.15-.11,.26-.29,.34-.52,.07-.23,.09-.45,.05-.68-.04-.23-.13-.44-.27-.64-.15-.2-.34-.37-.57-.51-.24-.14-.46-.22-.66-.23-.21-.01-.38,.04-.53,.15-.15,.12-.26,.29-.33,.52-.07,.23-.09,.46-.05,.69Z"/><path class="e" d="M216.54,92.53l-.45,1.32,1.88,1.16,.46-1.32,.69,.43-1.13,3.25-.68-.42,.46-1.36-1.87-1.16-.45,1.37-.69-.42,1.09-3.27,.7,.43Z"/><path class="e" d="M219.44,98.13c-.22-.31-.36-.65-.42-1-.06-.36-.03-.7,.08-1.03,.12-.33,.29-.58,.53-.75,.24-.16,.51-.24,.82-.22,.31,.02,.63,.14,.96,.35,.33,.21,.58,.47,.76,.79,.18,.32,.29,.67,.31,1.05,.02,.38-.04,.76-.18,1.15l-2.57-1.65c-.04,.31,.02,.6,.18,.88,.15,.28,.39,.52,.7,.72,.23,.14,.47,.25,.73,.32,.26,.07,.5,.1,.73,.07l-.19,.54c-.23,.04-.49,.01-.78-.06-.29-.08-.56-.2-.83-.37-.34-.22-.62-.48-.84-.8Zm2.37-.67c.04-.29,.01-.55-.1-.8-.11-.25-.29-.45-.53-.6-.17-.11-.33-.17-.49-.19-.16-.02-.3,0-.44,.07-.13,.07-.24,.17-.33,.32l1.89,1.21Z"/></g><polygon class="f" points="192.76 69.38 192.76 27.23 212.65 37.73 212.65 80.16 192.76 69.38"/><polygon class="f" points="192.76 127.67 192.76 85.52 212.65 96.02 212.65 138.46 192.76 127.67"/><polygon class="f" points="192.76 27.23 269.83 0 288.72 0 288.78 9.46 212.65 37.73 192.76 27.23"/><g><path class="h" d="M36.28,49.85h-2.81v-13.58h-10.19v13.58h-2.83v-16.09h15.83v16.09Z"/><path class="h" d="M43.44,49.1c-1.4-.7-2.48-1.68-3.26-2.94-.77-1.27-1.16-2.72-1.16-4.35s.39-3.09,1.16-4.35c.77-1.27,1.86-2.25,3.26-2.94,1.4-.7,3-1.05,4.81-1.05s3.41,.35,4.81,1.05c1.4,.7,2.48,1.68,3.26,2.94,.77,1.27,1.16,2.72,1.16,4.35s-.39,3.09-1.16,4.35c-.77,1.27-1.86,2.25-3.26,2.94-1.4,.7-3,1.05-4.81,1.05s-3.41-.35-4.81-1.05Zm-.76-4.22c.52,.88,1.25,1.55,2.21,2.02s2.08,.71,3.36,.71,2.41-.24,3.36-.71,1.69-1.15,2.21-2.02c.52-.88,.78-1.9,.78-3.08s-.26-2.21-.78-3.08c-.52-.88-1.25-1.55-2.21-2.02s-2.08-.71-3.36-.71-2.41,.24-3.36,.71-1.69,1.15-2.21,2.02c-.52,.88-.78,1.9-.78,3.08s.26,2.21,.78,3.08Z"/><path class="h" d="M57.97,47.36h2c.62-.71,1.08-1.73,1.39-3.05,.3-1.33,.46-2.99,.46-4.99,0-1.5-.1-3.35-.3-5.56h14.46v13.6h2.83v5.79h-2.64v-3.3h-15.55v3.3h-2.64v-5.79Zm15.17,.04v-11.15h-8.82c.09,1.27,.13,2.47,.13,3.63,0,1.79-.13,3.33-.39,4.61s-.64,2.25-1.13,2.92h10.21Z"/><path class="h" d="M98.47,49.85h-3.02l-1.73-3.69h-9.48l-1.73,3.69h-3.02l7.72-16.09h3.54l7.72,16.09Zm-5.85-6.03l-3.65-7.82-3.65,7.82h7.29Z"/><path class="h" d="M112.04,34.4c.89,.43,1.57,1.03,2.05,1.8,.48,.77,.72,1.65,.72,2.64s-.24,1.88-.72,2.64c-.48,.77-1.17,1.37-2.05,1.8-.89,.43-1.92,.64-3.1,.64h-5.68v5.92h-2.83v-16.09h8.52c1.18,0,2.21,.21,3.1,.64Zm-3.21,7.08c.64,0,1.19-.11,1.66-.32s.83-.52,1.08-.92c.25-.4,.37-.86,.37-1.4s-.12-1-.37-1.4c-.25-.4-.61-.7-1.08-.92-.47-.21-1.02-.32-1.66-.32h-5.58v5.28h5.58Z"/><path class="h" d="M117.13,33.76h2.83v12.12l9.91-12.12h3.07l-5.65,6.84,5.89,9.25h-3.24l-4.47-7.03-5.8,7.03h-2.53v-16.09Z"/><path class="h" d="M134.98,33.76h2.75v13.33l10.25-13.33h3.69v16.09h-2.75v-13.46l-10.34,13.46h-3.6v-16.09Z"/></g><g><path class="h" d="M36.28,70.19h-2.81v-13.58h-10.19v13.58h-2.83v-16.09h15.83v16.09Z"/><path class="h" d="M43.44,69.45c-1.4-.7-2.48-1.68-3.26-2.94-.77-1.27-1.16-2.72-1.16-4.35s.39-3.09,1.16-4.35c.77-1.27,1.86-2.25,3.26-2.94,1.4-.7,3-1.05,4.81-1.05s3.41,.35,4.81,1.05c1.4,.7,2.48,1.68,3.26,2.94,.77,1.27,1.16,2.72,1.16,4.35s-.39,3.09-1.16,4.35c-.77,1.27-1.86,2.25-3.26,2.94-1.4,.7-3,1.05-4.81,1.05s-3.41-.35-4.81-1.05Zm-.76-4.22c.52,.88,1.25,1.55,2.21,2.02s2.08,.71,3.36,.71,2.41-.24,3.36-.71,1.69-1.15,2.21-2.02c.52-.88,.78-1.9,.78-3.08s-.26-2.21-.78-3.08c-.52-.88-1.25-1.55-2.21-2.02s-2.08-.71-3.36-.71-2.41,.24-3.36,.71-1.69,1.15-2.21,2.02c-.52,.88-.78,1.9-.78,3.08s.26,2.21,.78,3.08Z"/><path class="h" d="M57.97,67.7h2c.62-.71,1.08-1.73,1.39-3.05,.3-1.33,.46-2.99,.46-4.99,0-1.5-.1-3.35-.3-5.56h14.46v13.6h2.83v5.79h-2.64v-3.3h-15.55v3.3h-2.64v-5.79Zm15.17,.04v-11.15h-8.82c.09,1.27,.13,2.47,.13,3.63,0,1.79-.13,3.33-.39,4.61s-.64,2.25-1.13,2.92h10.21Z"/><path class="h" d="M98.47,70.19h-3.02l-1.73-3.69h-9.48l-1.73,3.69h-3.02l7.72-16.09h3.54l7.72,16.09Zm-5.85-6.03l-3.65-7.82-3.65,7.82h7.29Z"/><path class="h" d="M112.04,54.75c.89,.43,1.57,1.03,2.05,1.8,.48,.77,.72,1.65,.72,2.64s-.24,1.88-.72,2.64c-.48,.77-1.17,1.37-2.05,1.8-.89,.43-1.92,.64-3.1,.64h-5.68v5.92h-2.83v-16.09h8.52c1.18,0,2.21,.21,3.1,.64Zm-3.21,7.08c.64,0,1.19-.11,1.66-.32s.83-.52,1.08-.92c.25-.4,.37-.86,.37-1.4s-.12-1-.37-1.4c-.25-.4-.61-.7-1.08-.92-.47-.21-1.02-.32-1.66-.32h-5.58v5.28h5.58Z"/><path class="h" d="M117.13,54.1h2.83v12.12l9.91-12.12h3.07l-5.65,6.84,5.89,9.25h-3.24l-4.47-7.03-5.8,7.03h-2.53v-16.09Z"/><path class="h" d="M134.98,54.1h2.75v13.33l10.25-13.33h3.69v16.09h-2.75v-13.46l-10.34,13.46h-3.6v-16.09Z"/></g><g><path class="h" d="M36.28,93.5h-2.81v-13.58h-10.19v13.58h-2.83v-16.09h15.83v16.09Z"/><path class="h" d="M43.44,92.75c-1.4-.7-2.48-1.68-3.26-2.94-.77-1.27-1.16-2.72-1.16-4.35s.39-3.09,1.16-4.35c.77-1.27,1.86-2.25,3.26-2.94,1.4-.7,3-1.05,4.81-1.05s3.41,.35,4.81,1.05c1.4,.7,2.48,1.68,3.26,2.94,.77,1.27,1.16,2.72,1.16,4.35s-.39,3.09-1.16,4.35c-.77,1.27-1.86,2.25-3.26,2.94-1.4,.7-3,1.05-4.81,1.05s-3.41-.35-4.81-1.05Zm-.76-4.22c.52,.88,1.25,1.55,2.21,2.02s2.08,.71,3.36,.71,2.41-.24,3.36-.71,1.69-1.15,2.21-2.02c.52-.88,.78-1.9,.78-3.08s-.26-2.21-.78-3.08c-.52-.88-1.25-1.55-2.21-2.02s-2.08-.71-3.36-.71-2.41,.24-3.36,.71-1.69,1.15-2.21,2.02c-.52,.88-.78,1.9-.78,3.08s.26,2.21,.78,3.08Z"/><path class="h" d="M57.97,91.01h2c.62-.71,1.08-1.73,1.39-3.05,.3-1.33,.46-2.99,.46-4.99,0-1.5-.1-3.35-.3-5.56h14.46v13.6h2.83v5.79h-2.64v-3.3h-15.55v3.3h-2.64v-5.79Zm15.17,.04v-11.15h-8.82c.09,1.27,.13,2.47,.13,3.63,0,1.79-.13,3.33-.39,4.61s-.64,2.25-1.13,2.92h10.21Z"/><path class="h" d="M98.47,93.5h-3.02l-1.73-3.69h-9.48l-1.73,3.69h-3.02l7.72-16.09h3.54l7.72,16.09Zm-5.85-6.03l-3.65-7.82-3.65,7.82h7.29Z"/><path class="h" d="M112.04,78.05c.89,.43,1.57,1.03,2.05,1.8,.48,.77,.72,1.65,.72,2.64s-.24,1.88-.72,2.64c-.48,.77-1.17,1.37-2.05,1.8-.89,.43-1.92,.64-3.1,.64h-5.68v5.92h-2.83v-16.09h8.52c1.18,0,2.21,.21,3.1,.64Zm-3.21,7.08c.64,0,1.19-.11,1.66-.32s.83-.52,1.08-.92c.25-.4,.37-.86,.37-1.4s-.12-1-.37-1.4c-.25-.4-.61-.7-1.08-.92-.47-.21-1.02-.32-1.66-.32h-5.58v5.28h5.58Z"/><path class="h" d="M117.13,77.41h2.83v12.12l9.91-12.12h3.07l-5.65,6.84,5.89,9.25h-3.24l-4.47-7.03-5.8,7.03h-2.53v-16.09Z"/><path class="h" d="M134.98,77.41h2.75v13.33l10.25-13.33h3.69v16.09h-2.75v-13.46l-10.34,13.46h-3.6v-16.09Z"/></g><g><path class="h" d="M36.28,116.71h-2.81v-13.58h-10.19v13.58h-2.83v-16.09h15.83v16.09Z"/><path class="h" d="M43.44,115.97c-1.4-.7-2.48-1.68-3.26-2.94-.77-1.27-1.16-2.72-1.16-4.35s.39-3.09,1.16-4.35c.77-1.27,1.86-2.25,3.26-2.94,1.4-.7,3-1.05,4.81-1.05s3.41,.35,4.81,1.05c1.4,.7,2.48,1.68,3.26,2.94,.77,1.27,1.16,2.72,1.16,4.35s-.39,3.09-1.16,4.35c-.77,1.27-1.86,2.25-3.26,2.94-1.4,.7-3,1.05-4.81,1.05s-3.41-.35-4.81-1.05Zm-.76-4.22c.52,.88,1.25,1.55,2.21,2.02s2.08,.71,3.36,.71,2.41-.24,3.36-.71,1.69-1.15,2.21-2.02c.52-.88,.78-1.9,.78-3.08s-.26-2.21-.78-3.08c-.52-.88-1.25-1.55-2.21-2.02s-2.08-.71-3.36-.71-2.41,.24-3.36,.71-1.69,1.15-2.21,2.02c-.52,.88-.78,1.9-.78,3.08s.26,2.21,.78,3.08Z"/><path class="h" d="M57.97,114.22h2c.62-.71,1.08-1.73,1.39-3.05,.3-1.33,.46-2.99,.46-4.99,0-1.5-.1-3.35-.3-5.56h14.46v13.6h2.83v5.79h-2.64v-3.3h-15.55v3.3h-2.64v-5.79Zm15.17,.04v-11.15h-8.82c.09,1.27,.13,2.47,.13,3.63,0,1.79-.13,3.33-.39,4.61s-.64,2.25-1.13,2.92h10.21Z"/><path class="h" d="M98.47,116.71h-3.02l-1.73-3.69h-9.48l-1.73,3.69h-3.02l7.72-16.09h3.54l7.72,16.09Zm-5.85-6.03l-3.65-7.82-3.65,7.82h7.29Z"/><path class="h" d="M112.04,101.27c.89,.43,1.57,1.03,2.05,1.8,.48,.77,.72,1.65,.72,2.64s-.24,1.88-.72,2.64c-.48,.77-1.17,1.37-2.05,1.8-.89,.43-1.92,.64-3.1,.64h-5.68v5.92h-2.83v-16.09h8.52c1.18,0,2.21,.21,3.1,.64Zm-3.21,7.08c.64,0,1.19-.11,1.66-.32s.83-.52,1.08-.92c.25-.4,.37-.86,.37-1.4s-.12-1-.37-1.4c-.25-.4-.61-.7-1.08-.92-.47-.21-1.02-.32-1.66-.32h-5.58v5.28h5.58Z"/><path class="h" d="M117.13,100.62h2.83v12.12l9.91-12.12h3.07l-5.65,6.84,5.89,9.25h-3.24l-4.47-7.03-5.8,7.03h-2.53v-16.09Z"/><path class="h" d="M134.98,100.62h2.75v13.33l10.25-13.33h3.69v16.09h-2.75v-13.46l-10.34,13.46h-3.6v-16.09Z"/></g></g></g></svg>