<?xml version="1.0" encoding="utf-8"?>
<svg width="26px" height="26px" viewBox="0 0 26 26" version="1.1" xmlns:xlink="http://www.w3.org/1999/xlink" xmlns="http://www.w3.org/2000/svg">
  <g id="Outlined--Action--perm_identity">
    <path d="M0 0L26 0L26 26L0 26L0 0Z" id="Path" fill="none" fill-rule="evenodd" stroke="none" />
    <path d="M15.1667 8.66667C15.1667 9.85833 14.1917 10.8333 13 10.8333C11.8083 10.8333 10.8333 9.85833 10.8333 8.66667C10.8333 7.475 11.8083 6.5 13 6.5C14.1917 6.5 15.1667 7.475 15.1667 8.66667ZM13 16.25C15.925 16.25 19.2833 17.6475 19.5 18.4167L19.5 19.5L6.5 19.5L6.5 18.4275C6.71667 17.6475 10.075 16.25 13 16.25L13 16.25ZM8.66669 8.66667C8.66669 11.0608 10.6059 13 13 13C15.3942 13 17.3334 11.0608 17.3334 8.66667C17.3334 6.2725 15.3942 4.33334 13 4.33334C10.6059 4.33334 8.66669 6.2725 8.66669 8.66667ZM13 14.0833C10.1075 14.0833 4.33334 15.535 4.33334 18.4167L4.33334 21.6667L21.6667 21.6667L21.6667 18.4167C21.6667 15.535 15.8925 14.0833 13 14.0833L13 14.0833Z" id="🔹-Icon-Color" fill="#1D1D1D" fill-rule="evenodd" stroke="none" />
  </g>
</svg>